HIERARCHY
ROOT Hips
{
     OFFSET 1.88212 96.90440 -13.34250
     CHANNELS 6 Xposition Yposition Zposition Zrotation Xrotation Yrotation
     JOINT Spine
     {
          OFFSET 0.00000 11.89050 0.00000
          CHANNELS 3 Zrotation Xrotation Yrotation
          JOINT Spine1
          {
               OFFSET -0.00000 25.65740 0.12766
               CHANNELS 3 Zrotation Xrotation Yrotation
               JOINT HEad
               {
                    OFFSET 0.00000 8.73416 0.01134
                    CHANNELS 3 Zrotation Xrotation Yrotation
                    End Site
                    {
                         OFFSET -0.29000 12.77420 2.51395
                    }
               }
               JOINT LeftShoulder1
               {
                    OFFSET 8.99000 -0.36225 -0.22000
                    CHANNELS 3 Zrotation Xrotation Yrotation
                    JOINT LeftArm
                    {
                         OFFSET 10.28270 -0.00338 0.32212
                         CHANNELS 3 Zrotation Xrotation Yrotation
                         JOINT LeftForeArm
                         {
                              OFFSET 32.76690 0.09914 -1.42434
                              CHANNELS 3 Zrotation Xrotation Yrotation
                              JOINT LeftHand
                              {
                                   OFFSET 27.56430 0.08536 1.02216
                                   CHANNELS 3 Zrotation Xrotation Yrotation
                                   End Site
                                   {
                                        OFFSET 16.74430 -0.60000 1.50291
                                   }
                              }
                         }
                    }
               }
               JOINT RightShoulder
               {
                    OFFSET -8.99000 -0.36225 -0.22000
                    CHANNELS 3 Zrotation Xrotation Yrotation
                    JOINT RightArm
                    {
                         OFFSET -10.28270 -0.00338 0.32212
                         CHANNELS 3 Zrotation Xrotation Yrotation
                         JOINT RightForeArm
                         {
                              OFFSET -32.89710 0.09914 -1.42434
                              CHANNELS 3 Zrotation Xrotation Yrotation
                              JOINT RightHand
                              {
                                   OFFSET -27.49210 0.08536 1.02216
                                   CHANNELS 3 Zrotation Xrotation Yrotation
                                   End Site
                                   {
                                        OFFSET -16.63120 -0.60000 1.50291
                                   }
                              }
                         }
                    }
               }
          }
     }
     JOINT LeftUpLeg
     {
          OFFSET 8.94580 -8.66707 0.10165
          CHANNELS 3 Zrotation Xrotation Yrotation
          JOINT LeftLeg
          {
               OFFSET 0.00000 -44.42270 1.37270
               CHANNELS 3 Zrotation Xrotation Yrotation
               JOINT LeftFoot
               {
                    OFFSET -0.25355 -42.09240 -1.46059
                    CHANNELS 3 Zrotation Xrotation Yrotation
                    JOINT LeftToes
                    {
                         OFFSET -0.04000 -4.41509 8.49910
                         CHANNELS 3 Zrotation Xrotation Yrotation
                         End Site
                         {
                              OFFSET 0.08000 -0.04745 9.77979
                         }
                    }
               }
          }
     }
     JOINT RightUpLeg
     {
          OFFSET -8.94580 -8.66707 0.10165
          CHANNELS 3 Zrotation Xrotation Yrotation
          JOINT RightLeg
          {
               OFFSET 0.00000 -44.42270 1.37270
               CHANNELS 3 Zrotation Xrotation Yrotation
               JOINT RightFoot
               {
                    OFFSET 0.25355 -42.09240 -1.46059
                    CHANNELS 3 Zrotation Xrotation Yrotation
                    JOINT RightToes
                    {
                         OFFSET 0.04000 -4.41509 8.49910
                         CHANNELS 3 Zrotation Xrotation Yrotation
                         End Site
                         {
                              OFFSET -0.08000 -0.13745 9.77979
                         }
                    }
               }
          }
     }
}
MOTION
Frames: 17
Frame Time: 0.01667
95.35390 79.80249 -106.12856 -11.39093 -0.98529 -36.63343 11.02500 13.28905 -1.61607 -0.02369 0.03740 0.04910 3.02429 12.05394 4.06604 -16.55922 13.63313 16.93527 -105.93737 -56.20561 -88.53490 -42.80355 55.77257 -100.60755 6.72638 8.35484 3.07107 1.39532 21.17722 24.25329 72.35347 -26.51600 75.93571 26.91684 48.03139 110.13191 -7.68474 14.24017 -0.89560 9.91072 -32.70097 26.15183 363.87759 57.49674 -358.94327 22.22255 -0.42605 0.20389 -29.13476 -15.97144 -12.61584 -25.47927 -16.80767 5.42475 -305.53235 58.25249 328.75122 32.23077 0.08816 0.28157 7.72218 10.68680 -12.03852 
98.28624 83.59404 -104.66597 -11.07777 -0.68369 -39.24580 11.09202 13.33646 -1.74946 -0.08804 0.10812 0.07656 1.92183 15.30620 3.56129 -17.70336 12.42339 18.38317 -104.06140 -56.44788 -86.43543 -41.41994 56.53011 -102.17000 6.44122 8.68777 1.91859 0.53992 20.55388 25.64301 71.28239 -27.02506 73.94324 27.56429 47.65391 110.52666 -7.46592 12.07897 -1.60650 5.78776 -29.58517 22.20905 369.34494 49.51647 -366.25214 16.34146 -0.38142 0.26558 -14.13378 -2.75697 -16.80479 -21.60393 -12.98587 1.49549 -301.18277 61.56244 327.58908 18.45014 -0.23601 -0.68093 7.75599 2.31803 -7.89988 
100.96832 86.85734 -103.59969 -8.63020 -0.78630 -42.51142 7.98123 13.49206 0.08188 -0.08208 0.09900 0.06198 1.76209 17.03106 2.89896 -17.32091 10.53842 18.40399 -102.51544 -56.76845 -84.44018 -39.90588 57.22802 -103.70058 7.25608 8.48338 2.18162 1.28287 18.90478 25.81036 69.95650 -27.27270 71.80077 28.02393 47.43878 111.25568 -6.88261 13.22229 -0.54012 0.71811 -27.93636 18.62816 373.09113 41.73822 -370.71384 10.23851 -0.41698 0.26851 -17.14558 -4.81389 -5.40430 -18.68388 -9.61320 -1.94438 -304.14465 63.52274 331.27716 14.18824 -0.00306 -0.19975 -0.03623 -17.27241 -0.64255 
103.22421 89.50033 -102.98766 -4.54964 -1.22023 -46.36270 3.34554 12.36334 2.92073 0.00035 0.01112 0.02518 1.45780 18.47827 2.49359 -16.69111 8.96249 18.01558 -101.23166 -57.11922 -82.60616 -38.45254 57.80474 -105.09579 7.17846 8.79495 1.29497 2.26847 17.43000 25.62492 68.55656 -27.36670 69.67735 28.21537 47.31064 112.14046 -6.79905 12.04245 -0.64346 -4.94701 -27.75307 15.00765 376.13281 34.62115 -373.35315 3.84931 -0.45689 0.23508 -1.08790 -2.26545 -12.86160 -16.58985 -6.70657 -4.81062 -316.04779 62.25274 340.93152 7.04785 -0.19215 -0.05988 -2.64520 -28.96688 -2.29791 
105.31720 91.42725 -102.79419 -1.11811 -1.72217 -49.77657 -0.62336 11.12577 5.39185 0.00118 0.00884 0.02047 0.19875 18.94391 3.76372 -9.76969 7.31310 6.43543 -107.79456 -67.95956 -82.92814 -37.37095 58.39145 -106.72682 7.52909 8.56126 1.29457 8.83315 11.60907 14.17610 63.54594 -15.91007 66.72348 28.28640 47.12822 112.53713 -6.54790 12.81491 0.33231 -9.85172 -27.58597 10.17876 378.87357 28.59245 -374.96487 -2.59762 -0.49232 0.17351 -2.03234 6.06551 -14.46151 -14.01732 -2.86611 -7.84373 -333.02319 56.13253 352.95837 -0.61315 -0.34414 0.19600 0.12030 -38.15956 -8.77835 
107.14381 92.75309 -102.91562 1.98897 -2.29935 -53.08977 -4.29120 9.70648 7.70178 0.00134 0.00735 0.00725 -1.25697 19.07323 5.46184 -5.02341 5.25867 -0.90680 -113.98634 -75.26913 -84.82771 -36.52356 58.96906 -108.58516 7.75888 8.51275 1.20916 13.07229 6.77407 7.16746 60.26275 -8.33474 65.12172 28.46360 46.84993 112.64249 -6.41097 13.12013 1.12191 -14.46192 -27.36322 4.91267 381.26059 22.91854 -375.86163 -8.54516 -0.46888 0.12582 -2.59334 11.34144 -11.73318 -11.55280 0.84164 -10.97021 -344.87268 47.97117 361.07153 -7.42546 -0.27922 0.18316 6.11525 -42.48422 -15.31160 
109.08313 93.42203 -103.23206 4.73184 -2.89952 -56.31416 -7.61785 8.18395 9.82791 0.00081 0.00194 0.00194 -2.63147 19.08885 7.15565 -1.52674 3.54463 -5.34454 -116.87657 -78.91167 -85.25541 -35.11109 58.48783 -110.25382 7.85823 8.36507 1.10613 15.94520 3.24705 2.71497 58.12691 -3.46493 64.34693 28.69147 46.58440 112.62653 -6.41435 13.21489 1.66460 -18.52016 -27.10612 -0.62382 383.76715 17.70605 -376.46735 -14.22608 -0.45824 0.09268 -4.69162 10.66664 -9.74618 -9.16673 4.37760 -14.13339 -353.56461 38.22339 366.40640 -11.95171 -0.21965 0.13705 4.85678 -45.89887 -20.51379 
110.91132 93.73273 -103.61900 7.13864 -3.48914 -59.44855 -10.61292 6.57752 11.76347 -0.00053 -0.00150 -0.00103 -3.91208 18.99677 8.85329 1.20198 2.37027 -7.72098 -114.29107 -79.63951 -81.55739 -33.28354 57.05405 -111.55395 7.85711 8.11475 1.07770 18.00484 0.97688 -0.20032 57.47458 -1.54603 63.70084 28.75958 46.29940 112.34936 -5.74575 12.07530 2.61947 -21.74689 -26.82994 -6.18784 386.47867 13.13166 -376.90866 -19.75251 -0.44750 0.05151 -5.94372 4.68742 -7.42538 -6.86446 7.77394 -17.30251 -359.49545 27.50712 370.04453 -14.81889 -0.14887 0.09517 -0.45242 -48.23294 -23.11667 
112.54124 93.30845 -104.01746 8.62467 -4.23094 -62.65879 -13.38774 5.54496 13.32619 -0.01227 0.01604 -0.02783 -5.27507 18.99178 10.67665 3.33548 1.65430 -8.49927 -109.43421 -78.26176 -76.48209 -32.11548 55.81709 -110.25533 8.51035 8.82785 0.54096 18.45501 1.30573 -4.94409 60.00986 0.95418 65.87177 28.47112 46.40128 110.76788 -4.38397 12.97326 -1.35782 -23.65135 -25.88960 -11.23763 388.68845 9.20415 -375.93753 -24.49096 -0.33789 0.02431 -4.87259 1.64324 -3.02531 -4.78529 11.58418 -19.98525 -362.50305 15.87644 371.32758 -14.80553 -0.01998 -0.01147 -2.21691 -47.16095 -20.97386 
114.05019 92.81469 -104.32548 9.22122 -5.02846 -65.82159 -15.91154 5.07122 14.45865 -0.01037 0.01744 -0.02907 -6.75976 19.08944 12.54970 4.97547 1.36439 -7.92763 -105.46953 -75.22675 -72.90781 -31.58584 54.81988 -106.70257 9.74713 10.34711 -1.05239 19.07879 1.87930 -7.74747 62.49639 2.64257 67.11968 27.46948 45.56458 108.58068 -1.82788 15.14776 -7.25296 -24.20195 -24.28144 -15.73957 390.51840 5.93496 -373.74930 -28.54889 -0.24749 0.01665 -0.01022 4.36658 4.64602 -2.94193 15.80420 -22.37004 -363.39182 3.84888 371.22211 -13.01255 0.08348 -0.09628 -1.98704 -43.64767 -15.66454 
115.47939 92.17573 -104.55766 8.96941 -5.79174 -68.84737 -18.15244 5.17698 15.13604 -0.00755 0.01745 -0.02861 -8.39550 19.23981 14.46013 6.19993 1.38072 -6.35236 -102.75285 -72.20951 -71.06061 -31.52828 53.72260 -103.26152 11.00354 11.79160 -2.48749 19.75019 2.63155 -8.96939 64.94917 3.72860 67.68891 25.64525 43.92196 106.12437 2.16461 18.41614 -13.48345 -23.52069 -22.05081 -19.75375 391.94366 3.30797 -370.49902 -31.92283 -0.17262 0.01317 3.04608 7.36035 11.17730 -1.31453 20.37984 -24.59248 -362.57849 -8.08634 370.35233 -10.31204 0.15146 -0.15811 -1.43547 -38.29625 -8.95477 
116.78113 91.41312 -104.71106 6.30844 -6.26958 -71.06168 -19.09238 7.09398 15.27409 0.00323 0.00153 0.00406 -10.35669 20.53839 15.27005 6.02255 2.30528 -4.15144 -102.00609 -70.14798 -72.03922 -31.57999 53.12613 -100.67920 12.17810 13.04025 -3.68736 20.13098 3.81611 -6.76538 67.25503 2.67762 67.03116 21.77813 39.58857 102.50740 5.82334 11.28788 -0.19637 -20.30695 -18.01722 -23.00871 390.90909 2.27138 -364.35190 -30.12299 0.03116 -0.03850 0.56102 9.22675 14.01116 -0.06097 25.89095 -26.15011 -358.79669 -18.33185 367.10922 -7.62962 0.21141 -0.20864 -0.02788 -29.59862 0.47872 
117.93250 90.56548 -104.79996 1.77191 -6.33818 -72.30277 -18.88199 10.59105 14.74434 0.00310 0.00478 0.00922 -12.41918 21.94246 16.41177 5.76965 3.46024 -1.97022 -102.92015 -69.24529 -74.18312 -31.69948 53.04027 -98.58480 12.71502 13.27614 -4.60926 20.26141 5.28856 -4.75062 69.28692 2.45757 66.61297 16.14793 33.87822 98.81499 10.44542 25.45116 -11.69634 -15.48842 -12.61401 -26.18474 388.07352 1.70793 -356.36182 -27.30751 -0.00880 -0.06698 -0.41880 12.10367 13.79829 0.96845 31.95561 -27.23331 -352.74301 -24.73949 364.76276 -13.47327 -0.27950 0.27455 4.55787 -23.99009 6.73779 
118.94297 89.75942 -104.84845 -2.25997 -6.30250 -73.22041 -18.71770 13.77555 14.06504 0.00300 0.00457 0.00888 -14.36021 23.12414 17.42860 5.55679 4.46131 -0.15255 -105.31594 -69.07513 -77.39627 -31.83217 53.38878 -96.77496 13.34811 13.48268 -5.47137 20.23545 6.58486 -3.14619 71.10274 2.88278 66.35285 9.08694 27.54712 95.61365 9.47598 15.87029 6.62432 -10.40282 -8.24177 -29.17727 383.60925 0.86525 -347.34726 -23.68814 -0.09265 -0.08773 -1.15720 14.82480 11.27119 0.51120 36.88966 -26.73498 -347.98315 -27.53670 362.85141 -14.74025 -0.04268 0.06989 4.91764 -20.90349 11.19823 
119.84637 89.03873 -104.85773 -5.80371 -6.19536 -73.84254 -18.56224 16.66511 13.26197 0.00305 0.00721 0.01088 -16.12667 24.08372 18.28971 5.36194 5.31217 1.34550 -108.82407 -69.24212 -81.45219 -31.89983 54.06292 -95.17479 13.65728 13.19783 -6.10130 20.15283 7.68342 -1.54836 72.73138 3.47131 66.31496 4.30913 24.46547 93.85664 15.75545 16.40572 5.68040 -5.33942 -4.85866 -31.74462 377.92014 -0.63653 -338.05286 -19.46325 -0.18714 -0.09026 -0.59342 17.38153 6.56833 -1.20279 40.67406 -24.62453 -343.83795 -28.04260 360.97394 -17.30940 -0.05183 0.04476 5.82063 -19.76816 13.72675 
120.68138 88.50094 -104.79764 -8.87816 -6.06156 -74.20609 -18.40805 19.27564 12.36506 0.00405 0.00938 0.01254 -17.68093 24.83541 18.98260 5.15040 6.02351 2.58600 -113.05515 -69.49271 -86.07382 -31.87337 54.95418 -93.77084 14.07562 12.97405 -6.64576 20.05446 8.58994 0.00305 74.10291 3.92730 66.52158 1.31652 23.03936 93.06229 14.86758 11.59127 13.37980 -0.58739 -2.44208 -33.62524 371.61069 -2.91741 -329.11884 -14.90357 -0.26102 -0.07535 0.92501 19.28518 0.13301 -3.95459 43.21395 -21.02705 -340.03067 -27.02762 358.81183 -19.29615 -0.02270 0.01732 5.75692 -19.63381 15.01304 
121.47689 88.17454 -104.63441 -11.50229 -5.93387 -74.35448 -18.25484 21.61913 11.40699 0.00519 0.01117 0.01385 -18.99143 25.39421 19.49446 4.89392 6.59940 3.61052 -117.62757 -69.68726 -90.94916 -31.72573 55.97633 -92.58303 14.32818 12.52540 -6.99256 20.05309 9.32120 1.46855 75.14070 4.13801 66.88802 -0.43535 22.56271 92.63792 17.54560 13.03911 11.21180 3.76507 -0.82623 -34.58979 364.76270 -5.52167 -320.95700 -10.17394 -0.32728 -0.03123 3.48891 19.79314 -7.82756 -7.47863 44.44594 -16.20813 -336.43448 -24.99358 356.15836 -21.79365 -0.01321 -0.00423 5.83146 -20.33745 15.47886 
